<svg width="32" height="33" viewBox="0 0 32 33" fill="none" xmlns="http://www.w3.org/2000/svg">
<path d="M29.5667 13.5094L28.8 11.7906L27.1333 11L28.8 10.2094L29.5667 8.49063L30.3333 10.2094L32 11L30.3333 11.7906L29.5667 13.5094ZM25.3333 7.49375L24.1667 4.95L21.7 3.74687L24.1667 2.54375L25.3333 0L26.5 2.54375L28.9667 3.74687L26.5 4.95L25.3333 7.49375ZM12 30.25C11.2444 30.25 10.6056 29.9807 10.0833 29.4422C9.56111 28.9036 9.3 28.2448 9.3 27.4656H14.7C14.7 28.2448 14.4389 28.9036 13.9167 29.4422C13.3944 29.9807 12.7556 30.25 12 30.25ZM6.6 25.3344V23.2719H17.4V25.3344H6.6ZM6.76667 21.175C5.3 20.1896 4.13889 18.9578 3.28333 17.4797C2.42778 16.0016 2 14.3344 2 12.4781C2 9.68229 2.98889 7.26458 4.96667 5.225C6.94444 3.18542 9.28889 2.16563 12 2.16563C14.7111 2.16563 17.0556 3.18542 19.0333 5.225C21.0111 7.26458 22 9.68229 22 12.4781C22 14.3344 21.5778 16.0016 20.7333 17.4797C19.8889 18.9578 18.7222 20.1896 17.2333 21.175H6.76667ZM7.5 19.1125H16.5333C17.6 18.3792 18.4444 17.4281 19.0667 16.2594C19.6889 15.0906 20 13.8302 20 12.4781C20 10.2094 19.2167 8.26719 17.65 6.65156C16.0833 5.03594 14.2 4.22813 12 4.22813C9.8 4.22813 7.91667 5.03594 6.35 6.65156C4.78333 8.26719 4 10.2094 4 12.4781C4 13.8302 4.31111 15.0906 4.93333 16.2594C5.55556 17.4281 6.41111 18.3792 7.5 19.1125Z" fill="black"/>
</svg>
